<svg width="14" height="12" viewBox="0 0 14 12" fill="none" xmlns="http://www.w3.org/2000/svg">
    <path d="M13.44 4.99962H5.46678L13.0201 3.2189C13.0916 3.20208 13.1586 3.17278 13.2174 3.13269C13.2761 3.09261 13.3254 3.04253 13.3623 2.98535C13.3993 2.92817 13.4232 2.86502 13.4327 2.79954C13.4422 2.73407 13.4371 2.66756 13.4176 2.60386L12.8465 0.728762C12.7679 0.47649 12.5811 0.262027 12.3267 0.13182C12.0723 0.00161357 11.7706 -0.033854 11.4871 0.033099L0.82744 2.54574C0.685507 2.57864 0.552351 2.63649 0.435767 2.71591C0.319183 2.79533 0.221514 2.89472 0.148478 3.00826C0.0750333 3.12041 0.0275825 3.2446 0.0089447 3.37344C-0.0096931 3.50229 0.000862279 3.63317 0.0399837 3.7583L0.560754 5.47215V10.9999C0.560754 11.2652 0.678747 11.5195 0.888776 11.7071C1.09881 11.8946 1.38367 12 1.68069 12H12.8801C13.1771 12 13.4619 11.8946 13.672 11.7071C13.882 11.5195 14 11.2652 14 10.9999V5.49965C14 5.36703 13.941 5.23985 13.836 5.14607C13.731 5.0523 13.5885 4.99962 13.44 4.99962ZM11.7713 0.999402L12.1913 2.37885L10.608 2.75387L8.6397 1.73882L11.7713 0.999402ZM7.10329 2.09946L9.07158 3.11452L6.48592 3.72392L4.51763 2.71012L7.10329 2.09946ZM1.5456 4.88836L1.12562 3.50829L2.98052 3.07076L4.94881 4.08707L1.5456 4.88836ZM12.8801 10.9999H1.68069V5.99967H12.8801V10.9999Z" fill="#DDDDDD"/>
</svg>
