<svg width="14" height="11" viewBox="0 0 14 11" fill="none" xmlns="http://www.w3.org/2000/svg">
    <path d="M1.4 11C1.015 11 0.685301 10.8652 0.410901 10.5957C0.136501 10.3262 -0.000465478 10.0027 1.18846e-06 9.625V1.375C1.18846e-06 0.996876 0.137201 0.673063 0.411601 0.403563C0.686001 0.134064 1.01547 -0.000457166 1.4 1.16723e-06H12.6C12.985 1.16723e-06 13.3147 0.134751 13.5891 0.404251C13.8635 0.673751 14.0005 0.997334 14 1.375V9.625C14 10.0031 13.8628 10.3269 13.5884 10.5964C13.314 10.8659 12.9845 11.0005 12.6 11H1.4ZM1.4 9.625H12.6V2.75H1.4V9.625ZM6.265 6.63437L8.6975 4.24531C8.8375 4.10781 9.00667 4.03906 9.205 4.03906C9.40333 4.03906 9.5725 4.10781 9.7125 4.24531C9.8525 4.38281 9.9225 4.54896 9.9225 4.74375C9.9225 4.93854 9.8525 5.10469 9.7125 5.24219L6.755 8.14687C6.615 8.28437 6.45167 8.35312 6.265 8.35312C6.07833 8.35312 5.915 8.28437 5.775 8.14687L4.2875 6.68594C4.1475 6.54844 4.0775 6.38229 4.0775 6.1875C4.0775 5.99271 4.1475 5.82656 4.2875 5.68906C4.4275 5.55156 4.59667 5.48281 4.795 5.48281C4.99333 5.48281 5.1625 5.55156 5.3025 5.68906L6.265 6.63437Z" fill="#DDDDDD"/>
</svg>
