<svg width="14" height="15" viewBox="0 0 14 15" fill="none" xmlns="http://www.w3.org/2000/svg">
    <path d="M2.695 11.325C3.29 10.8375 3.955 10.4531 4.69 10.1719C5.425 9.89062 6.195 9.75 7 9.75C7.805 9.75 8.575 9.89062 9.31 10.1719C10.045 10.4531 10.71 10.8375 11.305 11.325C11.7133 10.8125 12.0312 10.2313 12.2587 9.58125C12.4862 8.93125 12.6 8.2375 12.6 7.5C12.6 5.8375 12.0546 4.42188 10.9637 3.25313C9.87292 2.08438 8.55167 1.5 7 1.5C5.44833 1.5 4.12708 2.08438 3.03625 3.25313C1.94542 4.42188 1.4 5.8375 1.4 7.5C1.4 8.2375 1.51375 8.93125 1.74125 9.58125C1.96875 10.2313 2.28667 10.8125 2.695 11.325ZM7 8.25C6.31167 8.25 5.73125 7.99688 5.25875 7.49063C4.78625 6.98438 4.55 6.3625 4.55 5.625C4.55 4.8875 4.78625 4.26562 5.25875 3.75938C5.73125 3.25313 6.31167 3 7 3C7.68833 3 8.26875 3.25313 8.74125 3.75938C9.21375 4.26562 9.45 4.8875 9.45 5.625C9.45 6.3625 9.21375 6.98438 8.74125 7.49063C8.26875 7.99688 7.68833 8.25 7 8.25ZM7 15C6.03167 15 5.12167 14.8031 4.27 14.4094C3.41833 14.0156 2.6775 13.4813 2.0475 12.8063C1.4175 12.1313 0.91875 11.3375 0.55125 10.425C0.18375 9.5125 0 8.5375 0 7.5C0 6.4625 0.18375 5.4875 0.55125 4.575C0.91875 3.6625 1.4175 2.86875 2.0475 2.19375C2.6775 1.51875 3.41833 0.984375 4.27 0.590625C5.12167 0.196875 6.03167 0 7 0C7.96833 0 8.87833 0.196875 9.73 0.590625C10.5817 0.984375 11.3225 1.51875 11.9525 2.19375C12.5825 2.86875 13.0812 3.6625 13.4487 4.575C13.8162 5.4875 14 6.4625 14 7.5C14 8.5375 13.8162 9.5125 13.4487 10.425C13.0812 11.3375 12.5825 12.1313 11.9525 12.8063C11.3225 13.4813 10.5817 14.0156 9.73 14.4094C8.87833 14.8031 7.96833 15 7 15ZM7 13.5C7.61833 13.5 8.20167 13.4031 8.75 13.2094C9.29833 13.0156 9.8 12.7375 10.255 12.375C9.8 12.0125 9.29833 11.7344 8.75 11.5406C8.20167 11.3469 7.61833 11.25 7 11.25C6.38167 11.25 5.79833 11.3469 5.25 11.5406C4.70167 11.7344 4.2 12.0125 3.745 12.375C4.2 12.7375 4.70167 13.0156 5.25 13.2094C5.79833 13.4031 6.38167 13.5 7 13.5ZM7 6.75C7.30333 6.75 7.55417 6.64375 7.7525 6.43125C7.95083 6.21875 8.05 5.95 8.05 5.625C8.05 5.3 7.95083 5.03125 7.7525 4.81875C7.55417 4.60625 7.30333 4.5 7 4.5C6.69667 4.5 6.44583 4.60625 6.2475 4.81875C6.04917 5.03125 5.95 5.3 5.95 5.625C5.95 5.95 6.04917 6.21875 6.2475 6.43125C6.44583 6.64375 6.69667 6.75 7 6.75Z" fill="#DDDDDD"/>
</svg>
