<svg width="15" height="11" viewBox="0 0 15 11" fill="none" xmlns="http://www.w3.org/2000/svg">
    <path d="M1.42857 10.3529C1.03572 10.3529 0.699287 10.2261 0.419287 9.97247C0.139287 9.71882 -0.000474978 9.41427 1.21271e-06 9.05882V1.29412C1.21271e-06 0.938236 0.140001 0.633471 0.420001 0.379824C0.700001 0.126177 1.03619 -0.000430274 1.42857 1.09857e-06L2.85714 2.58824H5L3.57143 1.09857e-06H5L6.42857 2.58824H8.57143L7.14286 1.09857e-06H8.57143L10 2.58824H12.1429L10.7143 1.09857e-06H12.8571C13.25 1.09857e-06 13.5864 0.126825 13.8664 0.380472C14.1464 0.634119 14.2862 0.938668 14.2857 1.29412V3.88235H1.42857V9.05882H7.14286V10.3529H1.42857ZM8.57143 11V9.625L12.25 6.27647L13.7857 7.63529L10.0893 11H8.57143ZM14.3036 7.18235L12.7857 5.80735L13.2857 5.35441C13.4286 5.225 13.6012 5.1603 13.8036 5.1603C14.006 5.1603 14.1726 5.225 14.3036 5.35441L14.8036 5.82353C14.9345 5.95294 15 6.10673 15 6.28488C15 6.46304 14.9345 6.61122 14.8036 6.72941L14.3036 7.18235Z" fill="#DDDDDD"/>
</svg>
