<svg width="12" height="15" viewBox="0 0 12 15" fill="none" xmlns="http://www.w3.org/2000/svg">
    <path d="M1.45837 4.52153L5.52462 0.165766C5.57398 0.113854 5.63333 0.0724158 5.69913 0.0439339C5.76493 0.015452 5.83581 0.000513279 5.90754 1.2996e-05C5.97927 -0.000487287 6.05035 0.0134611 6.11655 0.0410224C6.18274 0.0685837 6.24267 0.10919 6.29275 0.160409L10.359 4.51617C10.6598 4.83549 10.4235 5.35357 9.97762 5.35357H8.02238C7.83438 5.35357 7.6786 5.50573 7.6786 5.68842V8.47172C7.6786 8.81728 7.39391 9.09481 7.03939 9.09481H4.7726C4.42346 9.09481 4.13339 8.81728 4.13876 8.47707V5.69378C4.13707 5.60411 4.10005 5.5187 4.03572 5.45604C3.97139 5.39337 3.88491 5.35849 3.79499 5.35893H1.83975C1.39391 5.35893 1.15756 4.8462 1.45837 4.52153ZM3.99642 10.0812H0.537153C0.241719 10.0812 0 10.3222 0 10.6169C0 10.9116 0.241719 11.1527 0.537153 11.1527H1.72963V14.4583C1.72963 14.753 1.97135 14.9941 2.26679 14.9941C2.56222 14.9941 2.80394 14.753 2.80394 14.4583V11.1527H3.99642C4.29185 11.1527 4.53357 10.9116 4.53357 10.6169C4.53357 10.3169 4.29185 10.0812 3.99642 10.0812ZM9.04029 10.087H10.5282C11.3393 10.087 12 10.746 12 11.555C12 12.364 11.3393 13.023 10.5282 13.023H9.57744V14.4642C9.57744 14.7589 9.33572 15 9.04029 15C8.74485 15 8.50313 14.7589 8.50313 14.4642V10.6228C8.50313 10.3281 8.74485 10.087 9.04029 10.087ZM9.57744 11.9515H10.5282C10.7484 11.9515 10.9257 11.7747 10.9257 11.555C10.9257 11.3354 10.7484 11.1586 10.5282 11.1586H9.57744V11.9515ZM4.53357 13.3177C4.53357 14.2446 5.29096 15 6.2256 15C7.15488 15 7.91764 14.2446 7.91764 13.3177V11.7747C7.91764 10.8478 7.16025 10.0924 6.2256 10.0924C5.29096 10.0924 4.53357 10.8478 4.53357 11.7747V13.3177ZM5.60788 11.7747C5.60788 11.6113 5.67296 11.4546 5.78881 11.339C5.90465 11.2235 6.06177 11.1586 6.2256 11.1586C6.38944 11.1586 6.54656 11.2235 6.6624 11.339C6.77825 11.4546 6.84333 11.6113 6.84333 11.7747V13.3177C6.84333 13.6606 6.56401 13.9338 6.2256 13.9338C5.8872 13.9338 5.60788 13.6552 5.60788 13.3177V11.7747Z" fill="#DDDDDD"/>
</svg>
